<?xml version="1.0" encoding="utf-8"?>
<!-- Generator: Adobe Illustrator 19.0.0, SVG Export Plug-In . SVG Version: 6.00 Build 0)  -->
<svg version="1.1" id="Capa_1" xmlns="http://www.w3.org/2000/svg" xmlns:xlink="http://www.w3.org/1999/xlink" x="0px" y="0px"
	 viewBox="0 0 46.4 61.9" style="enable-background:new 0 0 46.4 61.9;" xml:space="preserve">
<style type="text/css">
	.st0{fill:#4B9D54;}
</style>
<g id="PIN_2_1_">
	<g id="XMLID_39_">
		<path id="XMLID_40_" class="st0" d="M23.2,0C10.4,0,0,10.4,0,23.2C0,36,23.2,61.9,23.2,61.9S46.4,36,46.4,23.2
			C46.4,10.4,36,0,23.2,0z M23.2,38.7c-8.6,0-15.5-6.9-15.5-15.5c0-8.5,6.9-15.5,15.5-15.5c8.5,0,15.5,6.9,15.5,15.5
			C38.7,31.8,31.8,38.7,23.2,38.7z M23.2,15.5c-4.3,0-7.7,3.5-7.7,7.7c0,4.3,3.5,7.7,7.7,7.7c4.3,0,7.7-3.5,7.7-7.7
			C30.9,18.9,27.5,15.5,23.2,15.5z"/>
	</g>
</g>
</svg>
