<?xml version="1.0" encoding="utf-8"?>
<!-- Generator: Adobe Illustrator 18.1.0, SVG Export Plug-In . SVG Version: 6.00 Build 0)  -->
<svg version="1.1" id="Capa_1" xmlns="http://www.w3.org/2000/svg" xmlns:xlink="http://www.w3.org/1999/xlink" x="0px" y="0px"
	 viewBox="0 0 15 15" enable-background="new 0 0 15 15" xml:space="preserve">
<path fill="#FFFFFF" d="M14.7,11.8l-2.3-2.3c-0.5-0.5-1.2-0.4-1.7,0l-1.2,1.2c-0.1,0-0.1-0.1-0.2-0.1c-0.7-0.4-1.7-1-2.8-2
	c-1.1-1.1-1.6-2.1-2-2.8c0-0.1-0.1-0.2-0.1-0.2l0.8-0.8l0.4-0.4c0.5-0.5,0.5-1.2,0-1.7L3.2,0.3c-0.5-0.5-1.2-0.4-1.7,0L0.8,1l0,0
	C0.6,1.3,0.4,1.6,0.3,2C0.2,2.3,0.1,2.6,0,3c-0.3,2.5,0.9,4.9,4,8c4.3,4.3,7.8,4,8,4c0.3,0,0.6-0.1,1-0.2c0.3-0.1,0.7-0.3,0.9-0.5
	l0,0l0.7-0.6C15.1,13.1,15.1,12.3,14.7,11.8L14.7,11.8z M14.7,11.8"/>
</svg>
