<?xml version="1.0" encoding="utf-8"?>
<!-- Generator: Adobe Illustrator 19.0.0, SVG Export Plug-In . SVG Version: 6.00 Build 0)  -->
<svg version="1.1" id="Capa_1" xmlns="http://www.w3.org/2000/svg" xmlns:xlink="http://www.w3.org/1999/xlink" x="0px" y="0px"
	 viewBox="-286 409.9 22 22" style="enable-background:new -286 409.9 22 22;" xml:space="preserve">
<style type="text/css">
	.st0{fill:#2A4A96;}
</style>
<g>
	<path class="st0" d="M-265,421.9h-20c-0.5,0-1-0.5-1-1l0,0c0-0.5,0.5-1,1-1h20c0.6,0,1,0.4,1,1l0,0
		C-264,421.4-264.5,421.9-265,421.9z"/>
	<path class="st0" d="M-265,415.9h-20c-0.5,0-1-0.5-1-1l0,0c0-0.5,0.5-1,1-1h20c0.6,0,1,0.4,1,1l0,0
		C-264,415.4-264.5,415.9-265,415.9z"/>
	<path class="st0" d="M-265,427.9h-20c-0.5,0-1-0.5-1-1l0,0c0-0.5,0.5-1,1-1h20c0.6,0,1,0.4,1,1l0,0
		C-264,427.4-264.5,427.9-265,427.9z"/>
</g>
</svg>
