<?xml version="1.0" encoding="utf-8"?>
<!-- Generator: Adobe Illustrator 19.0.0, SVG Export Plug-In . SVG Version: 6.00 Build 0)  -->
<svg version="1.1" id="Capa_1" xmlns="http://www.w3.org/2000/svg" xmlns:xlink="http://www.w3.org/1999/xlink" x="0px" y="0px"
	 viewBox="-200 323.5 194.8 194.8" style="enable-background:new -200 323.5 194.8 194.8;" xml:space="preserve">
<style type="text/css">
	.st0{clip-path:url(#SVGID_2_);fill:#CCCCCC;}
	.st1{clip-path:url(#SVGID_4_);fill:#CCCCCC;}
	.st2{clip-path:url(#SVGID_6_);fill:#CCCCCC;}
</style>
<g>
	<g>
		<g>
			<defs>
				<rect id="SVGID_1_" x="-200" y="335.9" width="194.8" height="170"/>
			</defs>
			<clipPath id="SVGID_2_">
				<use xlink:href="#SVGID_1_"  style="overflow:visible;"/>
			</clipPath>
			<path class="st0" d="M-48.3,467.8c-3.8,0-7.6,1.1-10.7,3.3c-3.1,2.1-5.6,5.1-7,8.7h-103c-9.3,0-16.9-7.6-16.9-16.9
				s7.6-16.9,16.9-16.9h36c17.1,0,31.1-13.9,31.1-31.1c0-17.1-13.9-31-31.1-31h-30.3c-0.1-0.3-0.2-0.6-0.4-0.8
				c-0.1-0.2-0.1-0.3-0.2-0.5c-0.2-0.5-0.5-0.9-0.7-1.4l-0.1-0.1c-0.1-0.1-0.1-0.2-0.2-0.4c-0.3-0.4-0.6-0.9-1-1.4l-0.1-0.1
				c0-0.1-0.1-0.1-0.1-0.2c-0.9-1.1-1.9-2.1-2.9-2.9c-0.1-0.1-0.1-0.1-0.2-0.2l-0.1-0.1c-0.5-0.4-0.9-0.7-1.4-1
				c-0.1-0.1-0.3-0.2-0.4-0.2l-0.1-0.1c-0.4-0.3-0.9-0.5-1.4-0.7c-0.2-0.1-0.3-0.2-0.5-0.2c-0.5-0.2-1-0.4-1.6-0.6
				c-0.1,0-0.2-0.1-0.3-0.1l-0.2-0.1l0,0c-3.8-1.2-7.8-1.2-11.7,0l-0.1,0.1c-0.2,0.1-0.4,0.1-0.6,0.2l-0.2,0.1
				c-0.4,0.1-0.7,0.3-1,0.4c-0.3,0.2-0.7,0.3-1,0.5c-0.2,0.1-0.4,0.2-0.5,0.3l-0.2,0.1c-0.3,0.1-0.5,0.3-0.8,0.4
				c-0.2,0.1-0.4,0.3-0.7,0.4c-0.2,0.2-0.5,0.3-0.7,0.5l-0.1,0.1c-0.2,0.1-0.3,0.3-0.5,0.4c-0.3,0.2-0.5,0.5-0.9,0.8
				c-0.2,0.1-0.3,0.3-0.5,0.4c-0.3,0.3-0.6,0.7-0.9,1c-0.1,0.1-0.2,0.2-0.3,0.4l-0.1,0.1c-0.3,0.3-0.4,0.6-0.6,0.8
				c-0.1,0.2-0.3,0.4-0.4,0.6c-0.2,0.3-0.4,0.6-0.6,0.9l-0.1,0.1c-0.1,0.1-0.1,0.3-0.2,0.4c-0.1,0.7-0.3,1.1-0.5,1.6l-0.1,0.2
				c-0.2,0.5-0.4,1-0.6,1.6c0,0.1-0.1,0.3-0.1,0.4v0.1c-0.1,0.4-0.2,0.8-0.3,1.2c0,0.2-0.1,0.4-0.1,0.6c-0.1,0.4-0.1,0.8-0.2,1.2
				v0.1c0,0.1,0,0.3,0,0.4c-0.2,0.6-0.2,1.2-0.2,1.7c0,3.2,0.8,6.3,2.3,9.1c2.1,3.8,5.4,6.8,9.3,8.5c0.6,0.2,1.2,0.5,1.8,0.6
				c1.2,0.4,2.5,0.6,3.7,0.8c1.3,0.1,2.4,0.1,3.7,0c0.1,0,0.3,0,0.4,0h0.2c0.4-0.1,0.8-0.1,1.2-0.2c0.2,0,0.4-0.1,0.6-0.1
				c0.4-0.1,0.8-0.2,1.2-0.3h0.1c0.1,0,0.3-0.1,0.4-0.1c0.6-0.2,1.1-0.4,1.6-0.6l0.2-0.1c0.4-0.2,0.9-0.4,1.3-0.6
				c0.1-0.1,0.3-0.2,0.4-0.2l0.1-0.1c0.3-0.2,0.6-0.4,0.9-0.6c0.2-0.1,0.4-0.3,0.6-0.4c0.2-0.2,0.5-0.4,0.8-0.6l0.1-0.1
				c0.1-0.1,0.3-0.2,0.4-0.3c0.3-0.3,0.7-0.6,1-0.9c0.2-0.2,0.3-0.3,0.5-0.5s0.5-0.5,0.7-0.8c0.1-0.2,0.3-0.3,0.4-0.5l0.1-0.1
				c0.2-0.3,0.4-0.5,0.5-0.7c0.2-0.2,0.3-0.5,0.4-0.7c0.2-0.3,0.3-0.5,0.5-0.8l0.1-0.1c0.1-0.2,0.2-0.4,0.3-0.5
				c0.2-0.4,0.4-0.7,0.5-1c0.1-0.2,0.2-0.5,0.3-0.8h30.4c9.3,0,16.9,7.6,16.9,16.9S-123.7,432-133,432h-36
				c-17.1-0.2-31,13.8-31,30.9s13.9,31.1,31.1,31.1h103c1.4,3.5,3.8,6.5,7,8.7s6.9,3.3,10.7,3.3c10.5,0,19.1-8.6,19.1-19.1
				S-37.8,467.8-48.3,467.8 M-48.3,491.8c-2.7,0-4.9-2.2-4.9-4.9c0-2.7,2.2-4.9,4.9-4.9s4.9,2.2,4.9,4.9
				C-43.4,489.6-45.6,491.8-48.3,491.8 M-176,390.9c0,2.7-2.2,4.9-4.9,4.9s-4.9-2.2-4.9-4.9c0-2.7,2.2-4.9,4.9-4.9
				S-176,388.2-176,390.9"/>
		</g>
	</g>
	<g>
		<g>
			<defs>
				<rect id="SVGID_3_" x="-200" y="335.9" width="194.8" height="170"/>
			</defs>
			<clipPath id="SVGID_4_">
				<use xlink:href="#SVGID_3_"  style="overflow:visible;"/>
			</clipPath>
			<path class="st1" d="M-48.3,398c10.5,0,19.1-8.6,19.1-19.1s-8.6-19-19.1-19s-19.1,8.6-19.1,19.1S-58.8,398-48.3,398 M-48.3,374
				c2.7,0,4.9,2.2,4.9,4.9c0,2.7-2.2,4.9-4.9,4.9s-4.9-2.2-4.9-4.9S-51,374-48.3,374"/>
		</g>
	</g>
	<g>
		<g>
			<defs>
				<rect id="SVGID_5_" x="-200" y="335.9" width="194.8" height="170"/>
			</defs>
			<clipPath id="SVGID_6_">
				<use xlink:href="#SVGID_5_"  style="overflow:visible;"/>
			</clipPath>
			<path class="st2" d="M-48.3,335.9c-23.7,0-43.1,19.3-43.1,43c0,12.6,5.5,24.6,15.1,32.8l21.6,42.4c1.2,2.4,3.6,3.9,6.3,3.9
				s5.1-1.5,6.3-3.9l21.6-42.4c9.6-8.2,15.1-20.1,15.1-32.8C-5.2,355.2-24.5,335.9-48.3,335.9 M-48.3,350c15.9,0,28.9,13,28.9,28.9
				c0,8.9-4,17.2-11,22.7c-0.8,0.6-1.5,1.4-1.9,2.3l-16,31.3l-16-31.3c-0.5-0.9-1.1-1.7-1.9-2.3c-7-5.5-11-13.8-11-22.7
				C-77.2,363-64.2,350-48.3,350"/>
		</g>
	</g>
</g>
</svg>
