<?xml version="1.0" encoding="utf-8"?>
<!-- Generator: Adobe Illustrator 22.0.0, SVG Export Plug-In . SVG Version: 6.00 Build 0)  -->
<svg version="1.1" id="Capa_1" xmlns="http://www.w3.org/2000/svg" xmlns:xlink="http://www.w3.org/1999/xlink" x="0px" y="0px"
	 viewBox="0 0 189.9 128.5" style="enable-background:new 0 0 189.9 128.5;" xml:space="preserve">
<style type="text/css">
	.st0{fill:#FFFFFF;}
</style>
<path class="st0" d="M153.6,56.2c-0.8-0.3-1.6-0.4-2.6-0.3c-0.1,0-0.3,0-0.4,0c-2.4-11.6-4.5-23.4-6.4-35.1
	c6.7-1.6,12.5-5.6,15.5-12.3c1.3-2.8,0.9-6.1-2-7.8c-2.5-1.4-6.5-0.8-7.8,2c-2.3,5-6.1,7.3-11.6,7.4c-1.5,0-2.7,0.5-3.5,1.3
	c-1.7,1.2-2.9,3.3-2.5,5.9c1,6.1,2,12.2,3.1,18.3c-17.7-1.3-35.4-1-53.2-1C82,32.8,82,30.9,82,28.9c0-0.3-0.1-0.6-0.1-0.9
	c0.6-0.1,1.2-0.2,1.8-0.2c7.3-0.7,7.3-12,0-11.4c-7.3,0.7-14.4,1.9-21.5,3.6c-7.1,1.7-4.1,12.7,3,11c1.8-0.4,3.5-0.8,5.3-1.2
	c0,3.2,0.2,6.4,0.8,9.4C65.1,46.4,58.9,53.7,52.8,61c-4.8-2.4-10.1-4.1-15.4-4.9c-0.8-0.3-1.6-0.4-2.6-0.3c-2.4-0.2-4.7-0.3-7.1-0.1
	c-2.8,0.2-4.5,2-5.2,4.1C9.9,66,1.1,77.8,0.1,92.8c-1.3,19.2,17.6,34.7,35.6,35.6c18.8,0.9,33.7-11.3,37.3-29.1
	c-0.1,0.5,11.1-1.5,11.7-1.6c6.2-1,10-1.9,14.8-6.3c7-6.3,13.4-13.5,19.8-20.4c2.5-2.7,19.1-17.5,18.5-20.8c0.5,2.7,1,5.4,1.6,8.1
	c-0.3,0.5-0.6,1-0.7,1.6c-12.6,6.2-21.4,18-22.5,32.9c-1.3,19.2,17.6,34.7,35.6,35.6c20.2,1,35.9-13.2,37.9-33
	C192.1,73.5,173,59.1,153.6,56.2L153.6,56.2z M55,76.4c3.1,3.1,5.4,7,6.5,11.8c-5.4,0.1-10.7,0.1-16.1,0.1
	C48.6,84.3,51.8,80.3,55,76.4L55,76.4z M34.4,116.8C21.1,115,9.7,104,11.7,90.1c1.8-12.4,12.2-19.9,23.5-22.7
	c3.6,0.4,7.1,1.3,10.3,2.7c-5.1,6.2-10.1,12.4-15,18.7c-0.8,1-1.2,2.1-1.3,3.2c-0.2,0.6-0.4,1.3-0.4,2c0,3.1,2.6,5.7,5.7,5.7h4
	c0.7,0,1.4-0.1,2-0.4c0.6,0.2,1.3,0.4,2,0.4c6.4,0,12.7,0,19.1-0.1C58.7,111,46.3,118.4,34.4,116.8L34.4,116.8z M73.5,87.8
	c-1.1-8.2-5.3-15-11.2-20.3c3.9-4.7,7.9-9.3,11.9-14c3,11.2,5.9,22.5,8.4,33.9C79.5,87.6,76.5,87.7,73.5,87.8L73.5,87.8z M92.9,81.8
	c-2.7-12-5.8-23.9-9-35.7C98,46,112,45.9,126,46.6C115.4,58.7,104.5,70.5,92.9,81.8L92.9,81.8z M150.6,116.8
	c-13.3-1.8-24.7-12.8-22.7-26.7c1.3-8.8,7-15.2,14.3-19.1c1.6,7.3,3.4,14.5,5.4,21.7c1.9,7.1,12.9,4.1,11-3
	c-2-7.3-3.8-14.6-5.4-21.9c13.1,2.1,24.3,10.3,25.3,25.2C179.6,108.1,164.7,118.7,150.6,116.8L150.6,116.8z"/>
</svg>
