<?xml version="1.0" encoding="utf-8"?>
<!-- Generator: Adobe Illustrator 19.0.0, SVG Export Plug-In . SVG Version: 6.00 Build 0)  -->
<svg version="1.1" id="Capa_1" xmlns="http://www.w3.org/2000/svg" xmlns:xlink="http://www.w3.org/1999/xlink" x="0px" y="0px"
	 viewBox="0 0 194.8 170" style="enable-background:new 0 0 194.8 170;" xml:space="preserve">
<style type="text/css">
	.st0{clip-path:url(#SVGID_2_);fill:#CFB355;}
</style>
<g>
	<defs>
		<rect id="SVGID_1_" width="194.8" height="170"/>
	</defs>
	<clipPath id="SVGID_2_">
		<use xlink:href="#SVGID_1_"  style="overflow:visible;"/>
	</clipPath>
	<path class="st0" d="M151.7,131.9c-3.8,0-7.6,1.1-10.7,3.3c-3.1,2.1-5.6,5.1-7,8.7h-103c-9.3,0-16.9-7.6-16.9-16.9
		c0-9.3,7.6-16.9,16.9-16.9h36c17.1,0,31.1-13.9,31.1-31.1C98.1,61.9,84.2,48,67,48H36.7c-0.1-0.3-0.2-0.6-0.4-0.8
		c-0.1-0.2-0.1-0.3-0.2-0.5c-0.2-0.5-0.5-0.9-0.7-1.4l-0.1-0.1c-0.1-0.1-0.1-0.2-0.2-0.4c-0.3-0.4-0.6-0.9-1-1.4l-0.1-0.1
		c0-0.1-0.1-0.1-0.1-0.2c-0.9-1.1-1.9-2.1-2.9-2.9c-0.1-0.1-0.1-0.1-0.2-0.2l-0.1-0.1c-0.5-0.4-0.9-0.7-1.4-1
		c-0.1-0.1-0.3-0.2-0.4-0.2l-0.1-0.1c-0.4-0.3-0.9-0.5-1.4-0.7c-0.2-0.1-0.3-0.2-0.5-0.2c-0.5-0.2-1-0.4-1.6-0.6
		c-0.1,0-0.2-0.1-0.3-0.1l-0.2-0.1l0,0c-3.8-1.2-7.8-1.2-11.7,0L13,37c-0.2,0.1-0.4,0.1-0.6,0.2l-0.2,0.1c-0.4,0.1-0.7,0.3-1,0.4
		c-0.3,0.2-0.7,0.3-1,0.5c-0.2,0.1-0.4,0.2-0.5,0.3l-0.2,0.1C9.2,38.7,9,38.9,8.7,39c-0.2,0.1-0.4,0.3-0.7,0.4
		c-0.2,0.2-0.5,0.3-0.7,0.5l-0.1,0.1c-0.2,0.1-0.3,0.3-0.5,0.4c-0.3,0.2-0.5,0.5-0.9,0.8c-0.2,0.1-0.3,0.3-0.5,0.4
		c-0.3,0.3-0.6,0.7-0.9,1c-0.1,0.1-0.2,0.2-0.3,0.4l-0.1,0.1c-0.3,0.3-0.4,0.6-0.6,0.8c-0.1,0.2-0.3,0.4-0.4,0.6
		c-0.2,0.3-0.4,0.6-0.6,0.9l-0.1,0.1c-0.1,0.1-0.1,0.3-0.2,0.4C2,46.6,1.8,47,1.6,47.5l-0.1,0.2c-0.2,0.5-0.4,1-0.6,1.6
		c0,0.1-0.1,0.3-0.1,0.4l0,0.1c-0.1,0.4-0.2,0.8-0.3,1.2c0,0.2-0.1,0.4-0.1,0.6c-0.1,0.4-0.1,0.8-0.2,1.2l0,0.1c0,0.1,0,0.3,0,0.4
		C0,53.9,0,54.5,0,55c0,3.2,0.8,6.3,2.3,9.1c2.1,3.8,5.4,6.8,9.3,8.5c0.6,0.2,1.2,0.5,1.8,0.6c1.2,0.4,2.5,0.6,3.7,0.8
		c1.3,0.1,2.4,0.1,3.7,0c0.1,0,0.3,0,0.4,0l0.2,0c0.4-0.1,0.8-0.1,1.2-0.2c0.2,0,0.4-0.1,0.6-0.1c0.4-0.1,0.8-0.2,1.2-0.3l0.1,0
		c0.1,0,0.3-0.1,0.4-0.1c0.6-0.2,1.1-0.4,1.6-0.6l0.2-0.1c0.4-0.2,0.9-0.4,1.3-0.6c0.1-0.1,0.3-0.2,0.4-0.2l0.1-0.1
		c0.3-0.2,0.6-0.4,0.9-0.6c0.2-0.1,0.4-0.3,0.6-0.4c0.2-0.2,0.5-0.4,0.8-0.6l0.1-0.1c0.1-0.1,0.3-0.2,0.4-0.3c0.3-0.3,0.7-0.6,1-0.9
		c0.2-0.2,0.3-0.3,0.5-0.5c0.2-0.2,0.5-0.5,0.7-0.8c0.1-0.2,0.3-0.3,0.4-0.5l0.1-0.1c0.2-0.3,0.4-0.5,0.5-0.7
		c0.2-0.2,0.3-0.5,0.4-0.7c0.2-0.3,0.3-0.5,0.5-0.8l0.1-0.1c0.1-0.2,0.2-0.4,0.3-0.5c0.2-0.4,0.4-0.7,0.5-1c0.1-0.2,0.2-0.5,0.3-0.8
		H67c9.3,0,16.9,7.6,16.9,16.9c0,9.3-7.6,16.9-16.9,16.9h-36C13.9,95.9,0,109.9,0,127s13.9,31.1,31.1,31.1h103
		c1.4,3.5,3.8,6.5,7,8.7c3.2,2.2,6.9,3.3,10.7,3.3c10.5,0,19.1-8.6,19.1-19.1S162.2,131.9,151.7,131.9 M151.7,155.9
		c-2.7,0-4.9-2.2-4.9-4.9s2.2-4.9,4.9-4.9c2.7,0,4.9,2.2,4.9,4.9S154.4,155.9,151.7,155.9 M24,55c0,2.7-2.2,4.9-4.9,4.9
		s-4.9-2.2-4.9-4.9c0-2.7,2.2-4.9,4.9-4.9S24,52.3,24,55"/>
	<path class="st0" d="M151.7,62.1c10.5,0,19.1-8.6,19.1-19.1S162.2,24,151.7,24c-10.5,0-19.1,8.6-19.1,19.1S141.2,62.1,151.7,62.1
		 M151.7,38.1c2.7,0,4.9,2.2,4.9,4.9c0,2.7-2.2,4.9-4.9,4.9c-2.7,0-4.9-2.2-4.9-4.9C146.8,40.3,149,38.1,151.7,38.1"/>
	<path class="st0" d="M151.7,0c-23.7,0-43.1,19.3-43.1,43c0,12.6,5.5,24.6,15.1,32.8l21.6,42.4c1.2,2.4,3.6,3.9,6.3,3.9
		c2.7,0,5.1-1.5,6.3-3.9l21.6-42.4c9.6-8.2,15.1-20.1,15.1-32.8C194.8,19.3,175.5,0,151.7,0 M151.7,14.1c15.9,0,28.9,13,28.9,28.9
		c0,8.9-4,17.2-11,22.7c-0.8,0.6-1.5,1.4-1.9,2.3l-16,31.3l-16-31.3c-0.5-0.9-1.1-1.7-1.9-2.3c-7-5.5-11-13.8-11-22.7
		C122.8,27.1,135.8,14.1,151.7,14.1"/>
</g>
</svg>
