<?xml version="1.0" encoding="utf-8"?>
<!-- Generator: Adobe Illustrator 19.0.0, SVG Export Plug-In . SVG Version: 6.00 Build 0)  -->
<svg version="1.1" id="Capa_1" xmlns="http://www.w3.org/2000/svg" xmlns:xlink="http://www.w3.org/1999/xlink" x="0px" y="0px"
	 viewBox="-223 336 148.8 169.9" style="enable-background:new -223 336 148.8 169.9;" xml:space="preserve">
<style type="text/css">
	.st0{clip-path:url(#SVGID_2_);fill:#CCCCCC;}
</style>
<g>
	<g>
		<defs>
			<rect id="SVGID_1_" x="-223" y="336" width="148.8" height="169.9"/>
		</defs>
		<clipPath id="SVGID_2_">
			<use xlink:href="#SVGID_1_"  style="overflow:visible;"/>
		</clipPath>
		<path class="st0" d="M-74.2,485.5c0-3.5,0-7,0-10.4c0-5-3.5-8.6-8.5-8.8c-0.8,0-1.6,0-2.5,0c-0.6,0-1.2,0-1.9,0
			c-0.2,0-0.4,0-0.6,0V459c0-13.7,0-27.3,0-41c0-1.5,0-2.9-0.3-4.4c-1.9-10.2-10.1-17.2-20.6-17.6c-2.4-3.9-6.7-6.4-11.3-6.4
			c-1.9,0-3.8,0.4-5.5,1.2c-6.4,2.9-9.5,10.4-7,17c0.6,1.6,1.5,3,2.6,4.2c-2.9-1.2-5.9-2.3-8.8-3.5l-2.4-1c3.7-3.3,6.2-7.4,7.4-12.3
			c3.7-1.3,6.7-4.2,8.3-7.9c1.7-4.2,1.3-8.9-1.1-12.6c-0.5-0.8-0.7-1.5-0.7-2.8c0-0.5,0-1.1,0-1.6c0-0.4,0-0.9,0-1.3
			c0.1-5.5-1.1-10.8-3.6-15.7c-5.4-10.4-16.7-17.3-28.3-17.3c-1,0-2.1,0.1-3.1,0.2c-13.2,1.4-24.4,10.8-27.7,23.3
			c-1,3.9-1.1,7.6-1.1,11.2c0,1,0,1.9,0,2.8c-2.8,3.9-3.6,8.8-1.9,13.3c1.4,3.9,4.5,7,8.4,8.4c1.2,4.9,3.8,9.1,7.5,12.3
			c-4.4,1.7-8.8,3.4-13,5.1c-2.5,1-5,1.9-7.4,2.9c-11.2,4.4-16.8,12.5-16.8,24.3c0,6.8,0,13.6,0,20.4v6c-5.5,0.3-8.9,3.8-8.9,9.5
			c0,2.2,0,4.4,0,6.6c0,4.6,0,9.3,0,13.9c-0.1,5.6,3.1,8.2,5.7,9.4l0.9,0.4h1h62h1.6l1.3-1c0.7-0.6,1.3-1.1,1.8-1.7
			c0.5,0.6,1.1,1.2,1.8,1.7l1.3,1h1.6h62h1.1l1-0.5c4.6-2.3,5.6-5.9,5.6-8.5C-74.2,493.1-74.2,489.2-74.2,485.5 M-171.2,378.8
			c0-0.1,0-0.3,0-0.4c7.6-0.3,15.1-2.4,22.2-6.2c0.7,0.7,1.4,1.5,2,2.2c0,1.1,0,2.3,0,3.4c0,3.8,0,7.8-0.1,11.6
			c-0.2,6.2-5.6,11-12.1,11.1h-0.1c-6.2,0-11.5-4.9-11.8-10.9C-171.3,386.1-171.2,382.6-171.2,378.8 M-147.8,356.3
			c-2.1,0-3.8,0.9-4.8,1.6c-6.9,4.4-13.7,6.5-20.7,6.5c-1,0-2,0-3.1-0.1c0.8-3.8,2.8-7.6,7-10.7c2.9-2.2,6.6-3.3,10.3-3.3
			c3.6,0,7,1,9.8,3c1.5,1,2.8,2.2,3.8,3.5C-146.1,356.4-146.9,356.3-147.8,356.3 M-158.9,414.6c-0.1,0.1-0.1,0.1-0.2,0.2
			c-0.1-0.1-0.1-0.1-0.2-0.2c0.1,0,0.1,0,0.2,0S-159,414.6-158.9,414.6 M-159.1,431.4c1.7,0,3.4-0.7,5-2.1c2.7-2.4,5.5-4.8,8.2-7.3
			l0.9-0.8c1.4,0.5,2.7,1.1,4.1,1.6c5.3,2.1,10.8,4.2,16.2,6.4c3.7,1.5,5.7,4,6.2,7.7c0.2,1.7,0.2,3.5,0.2,5.4c0,1,0,2,0,3
			c0.1,2.4,1.1,4.5,2.7,5.8c-1.5,1.3-2.6,3.3-2.7,6.3c0,2.8,0,5.6,0,8.4v0.3h-6.3v-1.6c0-5.8,0-11.7,0-17.5c0-0.7,0-1.8-0.3-2.9
			c-0.7-3.3-3.4-5.5-6.8-5.5c-0.1,0-0.2,0-0.3,0c-3.6,0.1-6.3,2.6-6.7,6.2c-0.1,0.8-0.1,1.5-0.1,2.1v0.2c0,5.8,0,11.7,0,17.5v1.5
			h-40.7v-3.2c0-5.6,0-11.3,0-16.9c0-4.2-2.9-7.3-6.9-7.4c-0.1,0-0.1,0-0.2,0c-3.8,0-6.7,2.9-7.1,6.9c0,0.5,0,1,0,1.3v0.3v18.1v0.8
			h-6.2c0-1.7,0-3.5,0-5.2c0-7.5-0.1-15.2,0.1-22.8c0.1-4.2,2.1-7,6.5-8.9c1.7-0.8,3.5-1.4,5.4-2.2c0.9-0.4,1.9-0.7,2.8-1.1
			c3.5-1.4,7.1-2.8,10.6-4.2l1.4-0.6l0.5,0.5c3,2.7,6.2,5.4,9.3,8.1C-162.1,430.8-160.6,431.4-159.1,431.4 M-116,415.8
			c3.1-1,5.7-2.9,7.4-5.7c1.9,0.2,3.4,0.9,4.6,2.1c1.5,1.5,2.2,3.7,2.2,6.2c-0.2,12-0.1,24.2-0.1,35.9c0,3.9,0,7.9,0,11.8h-2.2v-0.5
			c0-2.8,0-5.6,0-8.3c0-2.3-0.9-4.7-2.7-6.2c1.6-1.3,2.6-3.4,2.6-5.9v-1.3c0-2.2,0.1-4.5-0.1-6.8c-0.4-6.4-3-11.9-8-16.5
			c-2.1-1.9-4.4-3.2-6.7-4.3C-117.9,416.2-116.9,416.1-116,415.8 M-148.6,494.4c-1.2-1.5-3.1-2.7-6.4-2.7c-11.5,0-22.9,0-34.3,0
			h-11.1h-8.3v-11.3h120.3v11.3h-3.4h-48.8c-0.2,0-0.4,0-0.6,0c-0.2,0-0.3,0-0.5,0c-0.1,0-0.2,0-0.3,0c-0.2,0-0.3,0-0.5,0
			C-145.7,491.7-147.5,493-148.6,494.4"/>
	</g>
</g>
</svg>
