<?xml version="1.0" encoding="utf-8"?>
<!-- Generator: Adobe Illustrator 19.0.0, SVG Export Plug-In . SVG Version: 6.00 Build 0)  -->
<svg version="1.1" id="Capa_1" xmlns="http://www.w3.org/2000/svg" xmlns:xlink="http://www.w3.org/1999/xlink" x="0px" y="0px"
	 viewBox="0 0 169.9 169.9" style="enable-background:new 0 0 169.9 169.9;" xml:space="preserve">
<style type="text/css">
	.st0{clip-path:url(#SVGID_2_);fill:#FFFFFF;}
</style>
<g>
	<defs>
		<rect id="SVGID_1_" width="169.9" height="169.9"/>
	</defs>
	<clipPath id="SVGID_2_">
		<use xlink:href="#SVGID_1_"  style="overflow:visible;"/>
	</clipPath>
	<path class="st0" d="M162.8,155.7h-7.1V77.4c7.2-2.3,9.8-12,3.7-17.5L99.1,5.7c-7.8-7.6-20.5-7.6-28.6,0.2l-60,53.9
		C4.4,65.4,7,75.1,14.2,77.4c0,5.8,0,6.1,0,14.7c0,8.8,0,17.4,0,25.5c0,17.1,0,30.3,0,38.2H7.1c-3.9,0-7.1,3.2-7.1,7.1
		c0,3.9,3.2,7.1,7.1,7.1h14.2h42.5h42.5h42.5h14.2c3.9,0,7.1-3.2,7.1-7.1C169.9,158.9,166.7,155.7,162.8,155.7 M80.2,16.2
		c2.7-2.7,6.7-2.7,9.2-0.2l53.1,47.7H27.4L80.2,16.2z M70.8,155.7v-14.2h7.1c3.9,0,7.1-3.2,7.1-7.1c0-3.9-3.2-7.1-7.1-7.1h-7.1
		v-14.2h28.3v42.5H70.8z M113.2,155.7v-49.5c0-3.9-3.2-7.1-7.1-7.1H63.7c-3.9,0-7.1,3.2-7.1,7.1v49.5H28.3c0-7.9,0-21.1,0-38.2
		c0-8.1,0-16.7,0-25.5c0-8.3,0-8.8,0-14.2h113.2v77.9H113.2z"/>
</g>
</svg>
