<?xml version="1.0" encoding="utf-8"?>
<!-- Generator: Adobe Illustrator 19.0.0, SVG Export Plug-In . SVG Version: 6.00 Build 0)  -->
<svg version="1.1" id="Capa_1" xmlns="http://www.w3.org/2000/svg" xmlns:xlink="http://www.w3.org/1999/xlink" x="0px" y="0px"
	 viewBox="-212 336 169.9 169.9" style="enable-background:new -212 336 169.9 169.9;" xml:space="preserve">
<style type="text/css">
	.st0{clip-path:url(#SVGID_2_);fill:#CCCCCC;}
</style>
<g>
	<g>
		<defs>
			<rect id="SVGID_1_" x="-212" y="336" width="169.9" height="169.9"/>
		</defs>
		<clipPath id="SVGID_2_">
			<use xlink:href="#SVGID_1_"  style="overflow:visible;"/>
		</clipPath>
		<path class="st0" d="M-49.2,491.7h-7.1v-78.3c7.2-2.3,9.8-12,3.7-17.5l-60.3-54.2c-7.8-7.6-20.5-7.6-28.6,0.2l-60,53.9
			c-6.1,5.6-3.5,15.3,3.7,17.6c0,5.8,0,6.1,0,14.7c0,8.8,0,17.4,0,25.5c0,17.1,0,30.3,0,38.2h-7.1c-3.9,0-7.1,3.2-7.1,7.1
			s3.2,7.1,7.1,7.1h14.2h42.5h42.5h42.5H-49c3.9,0,7.1-3.2,7.1-7.1C-42.1,494.9-45.3,491.7-49.2,491.7 M-131.8,352.2
			c2.7-2.7,6.7-2.7,9.2-0.2l53.1,47.7h-115.1L-131.8,352.2z M-141.2,491.7v-14.2h7.1c3.9,0,7.1-3.2,7.1-7.1s-3.2-7.1-7.1-7.1h-7.1
			v-14.2h28.3v42.5L-141.2,491.7L-141.2,491.7z M-98.8,491.7v-49.5c0-3.9-3.2-7.1-7.1-7.1h-42.4c-3.9,0-7.1,3.2-7.1,7.1v49.5h-28.3
			c0-7.9,0-21.1,0-38.2c0-8.1,0-16.7,0-25.5c0-8.3,0-8.8,0-14.2h113.2v77.9L-98.8,491.7L-98.8,491.7z"/>
	</g>
</g>
</svg>
