<?xml version="1.0" encoding="utf-8"?>
<!-- Generator: Adobe Illustrator 19.0.0, SVG Export Plug-In . SVG Version: 6.00 Build 0)  -->
<svg version="1.1" id="Capa_1" xmlns="http://www.w3.org/2000/svg" xmlns:xlink="http://www.w3.org/1999/xlink" x="0px" y="0px"
	 viewBox="-202 325.7 189.9 189.9" style="enable-background:new -202 325.7 189.9 189.9;" xml:space="preserve">
<style type="text/css">
	.st0{fill:#CCCCCC;}
</style>
<path class="st0" d="M-48.4,412.6c-0.8-0.3-1.6-0.4-2.6-0.3c-0.1,0-0.3,0-0.4,0c-2.4-11.6-4.5-23.4-6.4-35.1
	c6.7-1.6,12.5-5.6,15.5-12.3c1.3-2.8,0.9-6.1-2-7.8c-2.5-1.4-6.5-0.8-7.8,2c-2.3,5-6.1,7.3-11.6,7.4c-1.5,0-2.7,0.5-3.5,1.3
	c-1.7,1.2-2.9,3.3-2.5,5.9c1,6.1,2,12.2,3.1,18.3c-17.7-1.3-35.4-1-53.2-1c-0.2-1.8-0.2-3.7-0.2-5.7c0-0.3-0.1-0.6-0.1-0.9
	c0.6-0.1,1.2-0.2,1.8-0.2c7.3-0.7,7.3-12,0-11.4c-7.3,0.7-14.4,1.9-21.5,3.6c-7.1,1.7-4.1,12.7,3,11c1.8-0.4,3.5-0.8,5.3-1.2
	c0,3.2,0.2,6.4,0.8,9.4c-6.2,7.2-12.4,14.5-18.5,21.8c-4.8-2.4-10.1-4.1-15.4-4.9c-0.8-0.3-1.6-0.4-2.6-0.3
	c-2.4-0.2-4.7-0.3-7.1-0.1c-2.8,0.2-4.5,2-5.2,4.1c-12.6,6.2-21.4,18-22.4,33c-1.3,19.2,17.6,34.7,35.6,35.6
	c18.8,0.9,33.7-11.3,37.3-29.1c-0.1,0.5,11.1-1.5,11.7-1.6c6.2-1,10-1.9,14.8-6.3c7-6.3,13.4-13.5,19.8-20.4
	c2.5-2.7,19.1-17.5,18.5-20.8c0.5,2.7,1,5.4,1.6,8.1c-0.3,0.5-0.6,1-0.7,1.6c-12.6,6.2-21.4,18-22.5,32.9
	c-1.3,19.2,17.6,34.7,35.6,35.6c20.2,1,35.9-13.2,37.9-33C-9.9,429.9-29,415.5-48.4,412.6L-48.4,412.6z M-147,432.8
	c3.1,3.1,5.4,7,6.5,11.8c-5.4,0.1-10.7,0.1-16.1,0.1C-153.4,440.7-150.2,436.7-147,432.8L-147,432.8z M-167.6,473.2
	c-13.3-1.8-24.7-12.8-22.7-26.7c1.8-12.4,12.2-19.9,23.5-22.7c3.6,0.4,7.1,1.3,10.3,2.7c-5.1,6.2-10.1,12.4-15,18.7
	c-0.8,1-1.2,2.1-1.3,3.2c-0.2,0.6-0.4,1.3-0.4,2c0,3.1,2.6,5.7,5.7,5.7h4c0.7,0,1.4-0.1,2-0.4c0.6,0.2,1.3,0.4,2,0.4
	c6.4,0,12.7,0,19.1-0.1C-143.3,467.4-155.7,474.8-167.6,473.2L-167.6,473.2z M-128.5,444.2c-1.1-8.2-5.3-15-11.2-20.3
	c3.9-4.7,7.9-9.3,11.9-14c3,11.2,5.9,22.5,8.4,33.9C-122.5,444-125.5,444.1-128.5,444.2L-128.5,444.2z M-109.1,438.2
	c-2.7-12-5.8-23.9-9-35.7c14.1-0.1,28.1-0.2,42.1,0.5C-86.6,415.1-97.5,426.9-109.1,438.2L-109.1,438.2z M-51.4,473.2
	c-13.3-1.8-24.7-12.8-22.7-26.7c1.3-8.8,7-15.2,14.3-19.1c1.6,7.3,3.4,14.5,5.4,21.7c1.9,7.1,12.9,4.1,11-3
	c-2-7.3-3.8-14.6-5.4-21.9c13.1,2.1,24.3,10.3,25.3,25.2C-22.4,464.5-37.3,475.1-51.4,473.2L-51.4,473.2z"/>
</svg>
