<?xml version="1.0" encoding="utf-8"?>
<!-- Generator: Adobe Illustrator 19.0.0, SVG Export Plug-In . SVG Version: 6.00 Build 0)  -->
<svg version="1.1" id="Capa_1" xmlns="http://www.w3.org/2000/svg" xmlns:xlink="http://www.w3.org/1999/xlink" x="0px" y="0px"
	 viewBox="-41 164.9 512 512" style="enable-background:new -41 164.9 512 512;" xml:space="preserve">
<style type="text/css">
	.st0{fill:#FFFFFF;}
</style>
<path class="st0" d="M215,668.9c137,0,248-111,248-248s-111-248-248-248s-248,111-248,248S78,668.9,215,668.9z M-1,420.9
	c0-118.7,96.1-216,216-216c118.7,0,216,96.1,216,216c0,118.7-96.1,216-216,216C96.3,636.9-1,540.8-1,420.9z M91.5,408.4l115-115.1
	c4.7-4.7,12.3-4.7,17,0l115,115.1c4.7,4.7,4.7,12.3,0,17l-6.9,6.9c-4.7,4.7-12.5,4.7-17.1-0.2L232,346.6v190.3c0,6.6-5.4,12-12,12
	h-10c-6.6,0-12-5.4-12-12V346.6l-82.5,85.6c-4.7,4.8-12.4,4.9-17.1,0.2l-6.9-6.9C86.8,420.7,86.8,413.1,91.5,408.4z"/>
</svg>
